<mxfile host="Electron" modified="2024-01-07T18:20:51.720Z" agent="Mozilla/5.0 (Macintosh; Intel Mac OS X 10_15_7) AppleWebKit/537.36 (KHTML, like Gecko) draw.io/22.1.16 Chrome/120.0.6099.109 Electron/28.1.0 Safari/537.36" etag="Oj0VFPFyWe-IxXlWbsTA" version="22.1.16" type="device">
  <diagram name="Page-1" id="muZhDqUg4IVsdJ4msYTI">
    <mxGraphModel dx="1098" dy="821" grid="0" gridSize="10" guides="1" tooltips="1" connect="1" arrows="1" fold="1" page="1" pageScale="1" pageWidth="827" pageHeight="1169" background="#ffffff" math="0" shadow="0">
      <root>
        <mxCell id="0" />
        <mxCell id="1" parent="0" />
        <mxCell id="jyT7bO4kIpeUqKTjL-Dw-1" value="Amazon SP-API&amp;nbsp;" style="sketch=0;outlineConnect=0;fontColor=#232F3E;gradientColor=none;fillColor=#E7157B;strokeColor=none;dashed=0;verticalLabelPosition=bottom;verticalAlign=top;align=center;html=1;fontSize=12;fontStyle=0;aspect=fixed;pointerEvents=1;shape=mxgraph.aws4.endpoint;" vertex="1" parent="1">
          <mxGeometry x="90" y="310" width="68" height="68" as="geometry" />
        </mxCell>
        <mxCell id="jyT7bO4kIpeUqKTjL-Dw-6" value="Inventory report fetcher" style="image;aspect=fixed;html=1;points=[];align=center;fontSize=12;image=img/lib/azure2/compute/Function_Apps.svg;fontColor=#000000;labelBackgroundColor=none;" vertex="1" parent="1">
          <mxGeometry x="290" y="310" width="68" height="60" as="geometry" />
        </mxCell>
        <mxCell id="jyT7bO4kIpeUqKTjL-Dw-7" value="Scheduler" style="image;aspect=fixed;html=1;points=[];align=center;fontSize=12;image=img/lib/azure2/general/Scheduler.svg;labelBackgroundColor=none;fontColor=#000000;" vertex="1" parent="1">
          <mxGeometry x="290" y="150" width="68" height="68" as="geometry" />
        </mxCell>
        <mxCell id="jyT7bO4kIpeUqKTjL-Dw-11" value="Storage Container" style="image;aspect=fixed;html=1;points=[];align=center;fontSize=12;image=img/lib/azure2/general/Storage_Container.svg;labelBackgroundColor=none;fontColor=#000000;" vertex="1" parent="1">
          <mxGeometry x="490" y="318" width="64" height="52" as="geometry" />
        </mxCell>
        <mxCell id="jyT7bO4kIpeUqKTjL-Dw-16" value="ASIN Restocking &#xa;Dashboard" style="shape=image;verticalLabelPosition=bottom;labelBackgroundColor=none;verticalAlign=top;aspect=fixed;imageAspect=0;image=https://qbico.pl/wp-content/uploads/2021/03/ms-power-bi-main.webp;fontColor=#000000;" vertex="1" parent="1">
          <mxGeometry x="670" y="310" width="67" height="70.53" as="geometry" />
        </mxCell>
        <mxCell id="jyT7bO4kIpeUqKTjL-Dw-17" value="" style="endArrow=classic;html=1;rounded=0;fontColor=#000000;strokeColor=#000000;exitX=0;exitY=0.567;exitDx=0;exitDy=0;exitPerimeter=0;" edge="1" parent="1" source="jyT7bO4kIpeUqKTjL-Dw-6" target="jyT7bO4kIpeUqKTjL-Dw-1">
          <mxGeometry width="50" height="50" relative="1" as="geometry">
            <mxPoint x="470" y="530" as="sourcePoint" />
            <mxPoint x="400" y="480" as="targetPoint" />
          </mxGeometry>
        </mxCell>
        <mxCell id="jyT7bO4kIpeUqKTjL-Dw-19" value="Fetch reports" style="edgeLabel;html=1;align=center;verticalAlign=middle;resizable=0;points=[];labelBackgroundColor=none;fontColor=#000000;" vertex="1" connectable="0" parent="jyT7bO4kIpeUqKTjL-Dw-17">
          <mxGeometry x="-0.3182" y="2" relative="1" as="geometry">
            <mxPoint x="-15" y="-16" as="offset" />
          </mxGeometry>
        </mxCell>
        <mxCell id="jyT7bO4kIpeUqKTjL-Dw-20" value="" style="endArrow=classic;html=1;rounded=0;fontColor=#000000;strokeColor=#000000;" edge="1" parent="1">
          <mxGeometry width="50" height="50" relative="1" as="geometry">
            <mxPoint x="324" y="250" as="sourcePoint" />
            <mxPoint x="324" y="302" as="targetPoint" />
          </mxGeometry>
        </mxCell>
        <mxCell id="jyT7bO4kIpeUqKTjL-Dw-22" value="Invoke" style="edgeLabel;html=1;align=center;verticalAlign=middle;resizable=0;points=[];labelBackgroundColor=none;fontColor=#000000;" vertex="1" connectable="0" parent="jyT7bO4kIpeUqKTjL-Dw-20">
          <mxGeometry x="-0.3077" y="1" relative="1" as="geometry">
            <mxPoint x="-25" as="offset" />
          </mxGeometry>
        </mxCell>
        <mxCell id="jyT7bO4kIpeUqKTjL-Dw-23" value="" style="endArrow=classic;html=1;rounded=0;fontColor=#000000;strokeColor=#000000;" edge="1" parent="1" target="jyT7bO4kIpeUqKTjL-Dw-11">
          <mxGeometry width="50" height="50" relative="1" as="geometry">
            <mxPoint x="360" y="344" as="sourcePoint" />
            <mxPoint x="168" y="354" as="targetPoint" />
          </mxGeometry>
        </mxCell>
        <mxCell id="jyT7bO4kIpeUqKTjL-Dw-24" value="Store reports" style="edgeLabel;html=1;align=center;verticalAlign=middle;resizable=0;points=[];labelBackgroundColor=none;fontColor=#000000;" vertex="1" connectable="0" parent="jyT7bO4kIpeUqKTjL-Dw-23">
          <mxGeometry x="-0.3182" y="2" relative="1" as="geometry">
            <mxPoint x="16" y="-12" as="offset" />
          </mxGeometry>
        </mxCell>
        <mxCell id="jyT7bO4kIpeUqKTjL-Dw-25" value="" style="endArrow=classic;html=1;rounded=0;fontColor=#000000;strokeColor=#000000;entryX=1.016;entryY=0.5;entryDx=0;entryDy=0;entryPerimeter=0;" edge="1" parent="1" source="jyT7bO4kIpeUqKTjL-Dw-16" target="jyT7bO4kIpeUqKTjL-Dw-11">
          <mxGeometry width="50" height="50" relative="1" as="geometry">
            <mxPoint x="671" y="470" as="sourcePoint" />
            <mxPoint x="671" y="344" as="targetPoint" />
          </mxGeometry>
        </mxCell>
        <mxCell id="jyT7bO4kIpeUqKTjL-Dw-26" value="Source reports" style="edgeLabel;html=1;align=center;verticalAlign=middle;resizable=0;points=[];labelBackgroundColor=none;fontColor=#000000;" vertex="1" connectable="0" parent="jyT7bO4kIpeUqKTjL-Dw-25">
          <mxGeometry x="-0.3182" y="2" relative="1" as="geometry">
            <mxPoint x="-14" y="-16" as="offset" />
          </mxGeometry>
        </mxCell>
      </root>
    </mxGraphModel>
  </diagram>
</mxfile>
